<svg width="35" height="35" viewBox="0 0 35 35" fill="none" xmlns="http://www.w3.org/2000/svg">
<path d="M17.7762 11.276C17.7762 10.8817 17.4687 10.562 17.0894 10.562C16.71 10.562 16.4025 10.8817 16.4025 11.276V18.5484L15.1023 17.1969C14.834 16.918 14.3991 16.918 14.1309 17.1969C13.8627 17.4757 13.8627 17.9277 14.1309 18.2066L16.6036 20.7769C16.6768 20.853 16.7624 20.9083 16.8537 20.9428C16.9272 20.9707 17.0066 20.986 17.0894 20.986C17.1966 20.986 17.2981 20.9604 17.3885 20.9149C17.4302 20.8939 17.4703 20.8683 17.5081 20.838C17.5338 20.8174 17.5581 20.7949 17.5808 20.7708L20.0477 18.2066C20.3159 17.9277 20.3159 17.4757 20.0477 17.1969C19.7794 16.918 19.3445 16.918 19.0763 17.1969L17.7762 18.5483V11.276Z" fill="url(#paint0_linear_36_20598)"/>
<path d="M17.7762 11.276C17.7762 10.8817 17.4687 10.562 17.0894 10.562C16.71 10.562 16.4025 10.8817 16.4025 11.276V18.5484L15.1023 17.1969C14.834 16.918 14.3991 16.918 14.1309 17.1969C13.8627 17.4757 13.8627 17.9277 14.1309 18.2066L16.6036 20.7769C16.6768 20.853 16.7624 20.9083 16.8537 20.9428C16.9272 20.9707 17.0066 20.986 17.0894 20.986C17.1966 20.986 17.2981 20.9604 17.3885 20.9149C17.4302 20.8939 17.4703 20.8683 17.5081 20.838C17.5338 20.8174 17.5581 20.7949 17.5808 20.7708L20.0477 18.2066C20.3159 17.9277 20.3159 17.4757 20.0477 17.1969C19.7794 16.918 19.3445 16.918 19.0763 17.1969L17.7762 18.5483V11.276Z" fill="url(#paint1_linear_36_20598)"/>
<path d="M11.5257 20.2006C11.9051 20.2006 12.2126 20.5203 12.2126 20.9146V22.8423C12.2126 22.9938 12.2705 23.1391 12.3735 23.2462C12.4766 23.3533 12.6163 23.4135 12.7621 23.4135H21.4165C21.5622 23.4135 21.702 23.3533 21.805 23.2462C21.9081 23.1391 21.966 22.9938 21.966 22.8423V20.9146C21.966 20.5203 22.2735 20.2006 22.6528 20.2006C23.0322 20.2006 23.3397 20.5203 23.3397 20.9146V22.8423C23.3397 23.3725 23.1371 23.881 22.7764 24.2559C22.4157 24.6308 21.9266 24.8414 21.4165 24.8414H12.7621C12.252 24.8414 11.7628 24.6308 11.4022 24.2559C11.0415 23.881 10.8389 23.3725 10.8389 22.8423V20.9146C10.8389 20.5203 11.1464 20.2006 11.5257 20.2006Z" fill="url(#paint2_linear_36_20598)"/>
<path d="M11.5257 20.2006C11.9051 20.2006 12.2126 20.5203 12.2126 20.9146V22.8423C12.2126 22.9938 12.2705 23.1391 12.3735 23.2462C12.4766 23.3533 12.6163 23.4135 12.7621 23.4135H21.4165C21.5622 23.4135 21.702 23.3533 21.805 23.2462C21.9081 23.1391 21.966 22.9938 21.966 22.8423V20.9146C21.966 20.5203 22.2735 20.2006 22.6528 20.2006C23.0322 20.2006 23.3397 20.5203 23.3397 20.9146V22.8423C23.3397 23.3725 23.1371 23.881 22.7764 24.2559C22.4157 24.6308 21.9266 24.8414 21.4165 24.8414H12.7621C12.252 24.8414 11.7628 24.6308 11.4022 24.2559C11.0415 23.881 10.8389 23.3725 10.8389 22.8423V20.9146C10.8389 20.5203 11.1464 20.2006 11.5257 20.2006Z" fill="url(#paint3_linear_36_20598)"/>
<path d="M33.6084 17.7014C33.6084 26.8196 26.2128 34.2117 17.0895 34.2117C7.96606 34.2117 0.570482 26.8196 0.570482 17.7014C0.570482 8.58322 7.96606 1.19109 17.0895 1.19109C26.2128 1.19109 33.6084 8.58322 33.6084 17.7014Z" stroke="#7B88BC" stroke-width="0.892917"/>
<defs>
<linearGradient id="paint0_linear_36_20598" x1="10.8389" y1="10.562" x2="25.9947" y2="14.425" gradientUnits="userSpaceOnUse">
<stop stop-color="#4EF0F0"/>
<stop offset="1" stop-color="#05C580"/>
</linearGradient>
<linearGradient id="paint1_linear_36_20598" x1="11.0628" y1="11.6726" x2="24.0116" y2="11.6661" gradientUnits="userSpaceOnUse">
<stop stop-color="#AE67FA"/>
<stop offset="0.973958" stop-color="#F49867"/>
</linearGradient>
<linearGradient id="paint2_linear_36_20598" x1="10.8389" y1="10.562" x2="25.9947" y2="14.425" gradientUnits="userSpaceOnUse">
<stop stop-color="#4EF0F0"/>
<stop offset="1" stop-color="#05C580"/>
</linearGradient>
<linearGradient id="paint3_linear_36_20598" x1="11.0628" y1="11.6726" x2="24.0116" y2="11.6661" gradientUnits="userSpaceOnUse">
<stop stop-color="#AE67FA"/>
<stop offset="0.973958" stop-color="#F49867"/>
</linearGradient>
</defs>
</svg>
