<svg xmlns="http://www.w3.org/2000/svg" fill="none" viewBox="0 0 214.29 108.64">

<path d="M143.813 11.7204L132.226 40.4236C131.453 42.3384 129.337 43.3374 127.34 42.813C78.8834 30.0893 44.812 57.9681 36.4203 105.049C36.0727 106.999 34.3959 108.46 32.4146 108.46H3.95664C1.91251 108.46 0.185604 106.933 0.0836028 104.891C-2.45129 54.1545 52.8385 -22.9228 141.404 6.50279C143.552 7.21634 144.66 9.62181 143.813 11.7204Z" fill="url(#paint0_linear_36_20185)"/>
<path d="M149.038 14.9478L137.636 40.4423C136.887 42.1156 137.376 44.0866 138.82 45.2161C158.36 60.5028 171.782 70.3611 178.275 105.298C178.632 107.222 180.297 108.643 182.254 108.643H210.362C212.571 108.643 214.37 106.848 214.286 104.641C212.53 58.33 180.621 20.8744 153.499 12.7932C151.687 12.2532 149.81 13.2214 149.038 14.9478Z" fill="#D0B4A8" fill-opacity="0.14"/>
<defs>
<linearGradient id="paint0_linear_36_20185" x1="0" y1="0" x2="162.883" y2="63.5588" gradientUnits="userSpaceOnUse">
<stop stop-color="#AE68FA"/>
<stop offset="1" stop-color="#F1966E"/>
</linearGradient>
</defs>
</svg>