<svg width="35" height="35" viewBox="0 0 35 35" fill="none" xmlns="http://www.w3.org/2000/svg">
<path d="M22.8029 10.563H12.8022C12.2338 10.563 11.6887 10.7887 11.2869 11.1903C10.885 11.592 10.6592 12.1368 10.6592 12.7049V22.7005C10.6592 23.2685 10.885 23.8133 11.2869 24.215C11.6887 24.6167 12.2338 24.8424 12.8022 24.8424H22.8029C23.3712 24.8424 23.9163 24.6167 24.3182 24.215C24.7201 23.8133 24.9459 23.2685 24.9459 22.7005V12.7049C24.9459 12.1368 24.7201 11.592 24.3182 11.1903C23.9163 10.7887 23.3712 10.563 22.8029 10.563ZM22.8029 11.9909C22.9923 11.9909 23.174 12.0661 23.308 12.2C23.4419 12.3339 23.5172 12.5155 23.5172 12.7049V16.9887H18.5169V11.9909H22.8029ZM12.0878 12.7049C12.0878 12.5155 12.1631 12.3339 12.2971 12.2C12.431 12.0661 12.6127 11.9909 12.8022 11.9909H17.0882V16.9887H12.0878V12.7049ZM12.8022 23.4144C12.6127 23.4144 12.431 23.3392 12.2971 23.2053C12.1631 23.0714 12.0878 22.8898 12.0878 22.7005V18.4167H17.0882V23.4144H12.8022ZM23.5172 22.7005C23.5172 22.8898 23.4419 23.0714 23.308 23.2053C23.174 23.3392 22.9923 23.4144 22.8029 23.4144H18.5169V18.4167H23.5172V22.7005Z" fill="url(#paint0_linear_36_20595)"/>
<path d="M22.8029 10.563H12.8022C12.2338 10.563 11.6887 10.7887 11.2869 11.1903C10.885 11.592 10.6592 12.1368 10.6592 12.7049V22.7005C10.6592 23.2685 10.885 23.8133 11.2869 24.215C11.6887 24.6167 12.2338 24.8424 12.8022 24.8424H22.8029C23.3712 24.8424 23.9163 24.6167 24.3182 24.215C24.7201 23.8133 24.9459 23.2685 24.9459 22.7005V12.7049C24.9459 12.1368 24.7201 11.592 24.3182 11.1903C23.9163 10.7887 23.3712 10.563 22.8029 10.563ZM22.8029 11.9909C22.9923 11.9909 23.174 12.0661 23.308 12.2C23.4419 12.3339 23.5172 12.5155 23.5172 12.7049V16.9887H18.5169V11.9909H22.8029ZM12.0878 12.7049C12.0878 12.5155 12.1631 12.3339 12.2971 12.2C12.431 12.0661 12.6127 11.9909 12.8022 11.9909H17.0882V16.9887H12.0878V12.7049ZM12.8022 23.4144C12.6127 23.4144 12.431 23.3392 12.2971 23.2053C12.1631 23.0714 12.0878 22.8898 12.0878 22.7005V18.4167H17.0882V23.4144H12.8022ZM23.5172 22.7005C23.5172 22.8898 23.4419 23.0714 23.308 23.2053C23.174 23.3392 22.9923 23.4144 22.8029 23.4144H18.5169V18.4167H23.5172V22.7005Z" fill="url(#paint1_linear_36_20595)"/>
<path d="M34.3194 17.7024C34.3194 26.8206 26.9238 34.2127 17.8004 34.2127C8.677 34.2127 1.28142 26.8206 1.28142 17.7024C1.28142 8.5842 8.677 1.19206 17.8004 1.19206C26.9238 1.19206 34.3194 8.5842 34.3194 17.7024Z" stroke="#7B88BC" stroke-width="0.892917"/>
<defs>
<linearGradient id="paint0_linear_36_20595" x1="10.6592" y1="10.563" x2="27.6626" y2="15.5161" gradientUnits="userSpaceOnUse">
<stop stop-color="#4EF0F0"/>
<stop offset="1" stop-color="#05C580"/>
</linearGradient>
<linearGradient id="paint1_linear_36_20595" x1="10.9151" y1="11.6736" x2="25.7137" y2="11.6651" gradientUnits="userSpaceOnUse">
<stop stop-color="#AE67FA"/>
<stop offset="0.973958" stop-color="#F49867"/>
</linearGradient>
</defs>
</svg>
