<svg width="318" height="274" viewBox="0 0 318 274" fill="none" xmlns="http://www.w3.org/2000/svg">
<path opacity="0.1" d="M13.5378 70C13.4178 68.2108 14.3234 66.5085 15.8745 65.6089L40.7948 51.156L43.0166 22.4338C43.155 20.6459 44.2965 19.0917 45.9608 18.4245C47.6251 17.7573 49.5241 18.0927 50.8593 19.2903L72.3055 38.5246L100.309 31.762C102.052 31.3411 103.883 31.9462 105.032 33.323C106.181 34.6999 106.448 36.6096 105.722 38.2491L94.056 64.5894L109.141 89.132C110.08 90.6596 110.071 92.5881 109.116 94.1062C108.162 95.6245 106.428 96.4692 104.644 96.2852L75.9884 93.3301L57.3084 115.261C56.1367 116.636 54.2957 117.209 52.5698 116.774C50.831 116.336 49.4918 114.948 49.1154 113.195L43.0709 85.0279L16.4412 74.0393C14.7836 73.355 13.6582 71.7892 13.5378 70Z" fill="#FCB901"/>
<path d="M68.4772 62.6922C90.7617 67.8967 112.923 73.9186 135.207 79.1233C139.407 80.092 139.941 86.5251 135.607 87.5432C127.521 90.167 119.672 92.3251 111.585 94.9489C119.387 98.635 126.876 97.7596 135.656 96.0766C139.4 95.639 143.724 95.7903 146.033 99.3151C149.73 104.722 145.921 113.341 144.24 118.938C139.918 133.164 133.847 146.792 131.273 161.617C128.681 178.779 139.343 175.708 149.919 168.779C161.197 161.622 171.678 152.004 180.523 142.139C195.858 124.728 211.326 105.331 232.449 94.9803C244.184 89.2296 264.872 89.512 269.188 105.21C274.645 124.424 267.655 150.786 257.584 167.654C252.834 176.967 213.101 234.16 244.592 228.216C267.655 223.842 288.795 196.776 303.541 179.945C305.546 177.74 309.147 180.457 307.608 182.899C295.182 202.086 277.271 219.944 257.422 231.825C246.618 238.051 223.917 241.142 223.011 222.783C221.897 201.383 239.826 181.188 250.486 163.739C257.469 152.924 260.508 138.337 262.711 125.964C267.363 99.5844 246.476 95.0923 227.909 107.334C205.228 122.465 190.655 147.013 170.406 164.852C163.109 171.106 139.09 192.889 127.608 181.459C114.388 168.261 127.585 140.664 132.723 126.561C132.6 127.378 141.672 103.839 138.165 103.811C134.658 103.783 130.791 105.038 127.047 105.475C119.911 106.236 113.724 105.135 108.022 101.933C110.541 108.499 112.357 115.293 113.47 122.315C113.908 126.059 108.748 128.122 106.077 125.88C88.3242 109.49 78.2105 87.9012 63.8685 68.8502C61.4356 66.1428 64.6279 61.6096 68.4772 62.6922ZM98.7279 94.8455C98.0435 92.736 99.5732 91.4624 101.094 91.3577C101.455 90.0748 102.281 89.0294 103.688 88.5731C108.258 87.0901 113.18 85.493 117.751 84.01C104.219 80.6288 91.0374 77.1337 77.5051 73.7525C85.7075 85.8579 92.9692 98.657 102.35 109.602C101.219 104.918 99.9734 99.8818 98.7279 94.8455Z" fill="#425269"/>
</svg>
